Fly_normalized_Motion_pl17
version=1
nRows=8
nColumns=43
inDegrees=yes
endheader
time		pelvis_tilt		pelvis_list		pelvis_rotation		pelvis_tx		pelvis_ty		pelvis_tz		hip_flexion_r		hip_adduction_r		hip_rotation_r		knee_angle_r		ankle_angle_r		subtalar_angle_r		mtp_angle_r		hip_flexion_l		hip_adduction_l		hip_rotation_l		knee_angle_l		ankle_angle_l		subtalar_angle_l		mtp_angle_l		lumbar_extension		lumbar_bending		lumbar_rotation		neck_flexion		neck_lateral_bending		neck_rotation		arm_flex_r		arm_add_r		arm_rot_r		elbow_flex_r		pro_sup_r		wrist_flex_r		wrist_dev_r		hand_finger_flex_r		arm_flex_l		arm_add_l		arm_rot_l		elbow_flex_l		pro_sup_l		wrist_flex_l		wrist_dev_l		hand_finger_flex_l		
0.695000		1.637734		-23.482878		88.874537		0.043190		1.927459		1.468754		49.591179		5.617460		7.725958		-98.382548		-15.446132		6.254064		32.466914		60.947769		-10.363224		-3.622346		-100.664996		-8.241835		-10.175793		24.990747		-28.933213		-0.296213		-1.145762		17.341124		-1.033086		5.362578		114.647242		-7.695738		16.113545		66.311345		111.150460		-2.001864		2.913084		30.020139		125.519667		-21.202040		40.263141		66.589786		86.640093		-12.345082		3.175973		27.356971		
0.699419		1.675170		-23.361602		88.873754		0.043221		1.928096		1.461615		49.493040		5.844581		7.813627		-97.873805		-13.885231		6.060782		32.689124		61.196426		-10.289295		-3.303992		-99.966515		-8.018826		-9.801723		25.014535		-29.026243		-0.325063		-1.415600		17.134518		-1.015794		5.612946		114.091908		-7.221190		15.851424		65.874252		111.202898		-2.490788		3.191731		29.683330		125.196234		-21.553881		40.534132		66.522667		87.166682		-12.323327		3.322085		27.299797		
0.703838		1.653484		-23.248080		88.796308		0.043163		1.928723		1.454613		49.517363		5.965253		7.860802		-97.340442		-12.940102		5.709476		32.685433		61.423936		-10.240713		-3.109495		-99.157050		-7.970414		-9.522759		25.032261		-29.156848		-0.418763		-1.545271		17.066865		-1.020400		5.766817		113.593737		-6.960375		15.786989		65.449712		111.267040		-2.646840		3.335600		29.547355		124.803026		-21.811431		40.743280		66.385004		87.472329		-12.298797		3.452877		27.268456		
0.708258		1.597528		-23.115394		88.691743		0.043126		1.929155		1.447634		49.568011		6.038833		7.878428		-96.829853		-11.979773		5.129009		32.579824		61.634731		-10.187622		-2.934373		-98.330255		-7.969471		-9.159193		25.057680		-29.297810		-0.546712		-1.691934		16.946962		-1.034472		5.951917		112.999135		-6.682558		15.702665		64.998393		111.328970		-2.734839		3.459612		29.459730		124.323324		-22.120049		40.948108		66.253313		87.804778		-12.285325		3.616338		27.230978		
0.712677		1.524947		-22.962985		88.580371		0.043066		1.929398		1.440663		49.672975		6.044469		7.827362		-96.337497		-11.227732		4.301842		32.189427		61.827922		-10.126452		-2.763954		-97.511812		-7.953464		-8.670457		25.118228		-29.454067		-0.684037		-1.845907		16.796963		-1.047597		6.167448		112.305742		-6.399256		15.586952		64.537943		111.453881		-2.687433		3.542183		29.453531		123.745998		-22.450280		41.103789		66.127112		88.248434		-12.272205		3.868855		27.176670		
0.717096		1.613875		-22.820196		88.577069		0.043180		1.929429		1.433696		49.876440		6.125356		7.482818		-95.809478		-10.916432		2.613013		29.656785		62.092031		-10.159214		-2.392570		-96.781368		-7.549710		-7.533406		25.502163		-29.597836		-0.675054		-1.992150		16.612236		-1.039798		6.468953		111.442263		-5.962558		15.053607		64.051126		112.337413		-2.033531		3.379129		29.719143		122.923084		-22.714811		40.807435		66.138099		89.796969		-12.053965		4.736542		27.004687		
0.721515		1.329967		-22.606715		88.462606		0.042813		1.929443		1.426633		50.048184		5.801906		7.429288		-95.276674		-10.645347		1.429608		29.243055		62.194051		-9.875638		-2.398926		-95.951952		-7.726800		-7.172279		25.561166		-29.785179		-0.963787		-2.254507		16.196895		-1.065438		6.568533		110.500733		-5.823582		14.983719		63.647770		112.214622		-1.883670		3.516133		29.783736		121.998192		-22.957169		40.707078		65.928586		89.790524		-12.149464		4.810972		26.950101		
0.725934		1.032595		-22.429696		88.369829		0.042455		1.929283		1.419675		50.355495		5.425989		7.280746		-94.695000		-11.021780		-0.352580		28.535441		62.344079		-9.581529		-2.442093		-95.124622		-7.657951		-6.730233		25.650613		-29.955197		-1.275759		-2.522318		15.827761		-1.056192		6.686360		109.459702		-5.747413		14.847875		63.321149		112.154232		-1.606624		3.708322		29.883355		120.991328		-23.093244		40.479827		65.667587		89.898234		-12.326003		5.056569		26.862799		
